<?xml version="1.0" encoding="utf-8"?>
<!-- Generator: Adobe Illustrator 27.1.1, SVG Export Plug-In . SVG Version: 6.00 Build 0)  -->
<svg version="1.1" id="Layer_1" xmlns="http://www.w3.org/2000/svg" xmlns:xlink="http://www.w3.org/1999/xlink" x="0px" y="0px"
	 viewBox="0 0 1000 1000" style="enable-background:new 0 0 1000 1000;" xml:space="preserve">
<style type="text/css">
	.st0{fill:#FFF3E3;}
	.st1{fill:#164571;}
	.st2{fill:#82CABC;}
	.st3{fill:#F6AF84;}
	.st4{fill:#D7483A;}
	.st5{fill:#FFFFFF;}
</style>
<g>
	<path class="st5" d="M224.98,571.74c-7.67,0-16.15-0.12-22.23-0.95V363.76l-3.01,0.22c-11.23,0.78-21.76,2.11-29.64,3.74
		l-2.24,0.47v229.14l2.44,0.33c7.35,0.99,23.09,2.66,45.98,2.66c20.19,0,36.58-1.94,50.1-5.92l2.02-0.61v-34.11l-4.32,2.75
		C254.47,568.52,240.95,571.74,224.98,571.74z"/>
	<path class="st5" d="M537.16,598.14c20.19,0,36.58-1.94,50.1-5.92l2.02-0.61v-34.11l-4.32,2.75c-9.6,6.08-23.12,9.31-39.1,9.31
		c-7.67,0-16.15-0.12-22.23-0.95V361.58l-3.01,0.22c-11.23,0.78-21.76,2.11-29.64,3.74l-2.24,0.47v229.14l2.44,0.33
		C498.52,596.47,514.26,598.14,537.16,598.14z"/>
	<path class="st5" d="M326.63,454.33c8.65-9.1,12.67-21.13,11.95-35.63c0-25.14-18-51.86-51.34-51.86
		c-39.14,0-63.45,30.58-63.45,79.81c0,81.44,40.67,98.54,74.8,98.54c10.44,0,17.68-2.21,26.68-6.03l1.72-0.74v-34.44l-4.52,3.47
		c-9.31,7.11-14.07,9.16-21.23,9.16c-12.57,0-34.18-6.02-40.44-45.45c3.71,0.5,8.05,0.72,13.54,0.72
		C297.62,471.87,315.71,465.81,326.63,454.33z M302.88,418.7c0,21.06-8.81,24.61-28.56,24.61h-15.35
		c0.58-29.52,10.52-48.42,25.63-48.42C295.71,394.89,302.88,404.23,302.88,418.7z"/>
	<path class="st5" d="M475.28,485.61c0-62.62-23.99-98.54-65.84-98.54c-42.52,0-61.88,41.37-61.88,79.81
		c0,65.38,22.33,98.54,66.37,98.54C456.08,565.43,475.28,524.05,475.28,485.61z M438.8,485.61c0,19.52-5.4,52.55-25.67,52.55
		c-21.44,0-29.09-36.82-29.09-71.28c0-19.52,5.4-52.55,25.65-52.55C431.15,414.34,438.8,451.16,438.8,485.61z"/>
	<path class="st5" d="M653.59,509.27v-98.15c0-31.15-18.01-49.76-48.17-49.76c-19.17,0-33.37,1.77-47.46,5.92l-2.02,0.61v38.01
		l4.71-4.3c8.25-7.51,21.06-11.65,36.07-11.65c16.63,0,21.97,5.15,21.97,21.18v15.54c-4.54-0.81-8.99-1.22-13.27-1.22
		c-19.72,0-36.39,6.56-48.21,18.97c-11.2,11.76-16.9,27.7-16.05,44.75c0,30.05,18.6,51.87,44.22,51.87
		c15.54,0,27.48-6.78,34.31-19.25c0.52,7.85,1.11,15.34,1.11,15.34l0.2,2.6h40.35l-2.32-4.18
		C655.08,528.4,653.35,520.05,653.59,509.27z M618.68,454.01v27.24c0,21.06-7.92,31.73-23.55,31.73c-11.1,0-18.27-9.35-18.27-23.82
		c0-22.01,10.67-35.15,28.56-35.15H618.68z"/>
	<path class="st5" d="M748.86,411.19c-15.4,0-27.46,7.6-35.12,22.03c-1.17-8.55-3.76-15.84-3.89-16.22l-0.67-1.86h-38.14l2.32,4.18
		c3.66,6.61,5.7,17.4,5.45,28.95v138.23l2.4,0.35c7.94,1.18,19.3,2.18,30.36,2.67l2.94,0.13V472.02c0-14.95,4.36-32.77,25.13-32.77
		c16.85,0,25.4,11.02,25.4,32.77v114.5l2.4,0.35c7.94,1.18,19.28,2.18,30.35,2.67l2.94,0.13V472.02
		C800.72,435.64,779.88,411.19,748.86,411.19z"/>
	<path class="st5" d="M455.21,364.85c-18.79-35.33-79.13-37.04-90.44,4.81C395.96,356.35,422.66,361.39,455.21,364.85z"/>
	<path class="st5" d="M648.75,335.44c-15.84-36.75-75.84-43.37-90.54-2.59C590.39,322.13,616.59,329.34,648.75,335.44z"/>
	<path class="st5" d="M626.86,598.45c-3.77-1.9-8.42-0.95-11.14,2.31c-29.85,35.59-61.58,53.83-93.88,52.83
		c-52.32-0.86-90.86-49.26-91.24-49.76c-2.68-3.42-7.41-4.5-11.32-2.55c-3.89,1.94-5.9,6.36-4.77,10.56
		c12.67,47.67,59.08,83.19,108.33,83.19c0.48,0,0.98,0,1.46-0.01c49.79-0.69,95.96-37.78,107.39-86.26
		C632.66,604.62,630.65,600.35,626.86,598.45z"/>
	<g>
		<path class="st5" d="M817.27,422.84c-8.2,0-14.88-6.67-14.88-14.88s6.67-14.88,14.88-14.88s14.88,6.67,14.88,14.88
			S825.47,422.84,817.27,422.84z M817.27,395.09c-7.1,0-12.88,5.78-12.88,12.88s5.78,12.88,12.88,12.88s12.88-5.78,12.88-12.88
			S824.37,395.09,817.27,395.09z"/>
	</g>
	<g>
		<path class="st5" d="M819.34,414.65l-3.09-4.77h-1.59v4.77h-2.68v-13.38h5.7c1.29,0,2.37,0.42,3.24,1.25
			c0.87,0.84,1.31,1.88,1.31,3.13c0,0.95-0.28,1.78-0.83,2.51c-0.55,0.72-1.28,1.23-2.18,1.51l3.34,4.98H819.34z M814.66,403.79
			v3.76h2.96c0.52,0,0.96-0.18,1.32-0.54c0.35-0.36,0.53-0.8,0.53-1.34c0-0.54-0.18-0.98-0.53-1.34c-0.35-0.36-0.79-0.54-1.32-0.54
			H814.66z"/>
	</g>
</g>
</svg>
