<?xml version="1.0" encoding="utf-8"?>
<!-- Generator: Adobe Illustrator 26.3.1, SVG Export Plug-In . SVG Version: 6.00 Build 0)  -->
<svg version="1.1" id="Layer_1" xmlns="http://www.w3.org/2000/svg" xmlns:xlink="http://www.w3.org/1999/xlink" x="0px" y="0px"
	 viewBox="0 0 1000 1000" style="enable-background:new 0 0 1000 1000;" xml:space="preserve">
<style type="text/css">
	.st0{fill:#FFF3E3;}
	.st1{fill:#1D1D1B;}
	.st2{fill:#FFFFFF;}
	.st3{fill:#164571;}
	.st4{fill:#82CABC;}
	.st5{fill:#F6AF84;}
	.st6{fill:#D7483A;}
</style>
<g>
	<path class="st2" d="M219.6,571.7c-7.7,0-16.1-0.1-22.2-0.9v-207l-3,0.2c-11.2,0.8-21.8,2.1-29.6,3.7l-2.2,0.5v229.1l2.4,0.3
		c7.3,1,23.1,2.7,46,2.7c20.2,0,36.6-1.9,50.1-5.9l2-0.6v-34.1l-4.3,2.8C249.1,568.5,235.6,571.7,219.6,571.7z"/>
	<path class="st2" d="M531.8,598.1c20.2,0,36.6-1.9,50.1-5.9l2-0.6v-34.1l-4.3,2.8c-9.6,6.1-23.1,9.3-39.1,9.3
		c-7.7,0-16.1-0.1-22.2-0.9v-207l-3,0.2c-11.2,0.8-21.8,2.1-29.6,3.7l-2.2,0.5v229.1l2.4,0.3C493.2,596.5,508.9,598.1,531.8,598.1z"
		/>
	<path class="st2" d="M321.3,454.3c8.6-9.1,12.7-21.1,11.9-35.6c0-25.1-18-51.9-51.3-51.9c-39.1,0-63.5,30.6-63.5,79.8
		c0,81.4,40.7,98.5,74.8,98.5c10.4,0,17.7-2.2,26.7-6l1.7-0.7V504l-4.5,3.5c-9.3,7.1-14.1,9.2-21.2,9.2c-12.6,0-34.2-6-40.4-45.4
		c3.7,0.5,8.1,0.7,13.5,0.7C292.3,471.9,310.4,465.8,321.3,454.3z M297.5,418.7c0,21.1-8.8,24.6-28.6,24.6h-15.3
		c0.6-29.5,10.5-48.4,25.6-48.4C290.4,394.9,297.5,404.2,297.5,418.7z"/>
	<path class="st2" d="M469.9,485.6c0-62.6-24-98.5-65.8-98.5c-42.5,0-61.9,41.4-61.9,79.8c0,65.4,22.3,98.5,66.4,98.5
		C450.7,565.4,469.9,524.1,469.9,485.6z M433.4,485.6c0,19.5-5.4,52.6-25.7,52.6c-21.4,0-29.1-36.8-29.1-71.3
		c0-19.5,5.4-52.6,25.7-52.6C425.8,414.3,433.4,451.2,433.4,485.6z"/>
	<path class="st2" d="M648.2,509.3v-98.2c0-31.2-18-49.8-48.2-49.8c-19.2,0-33.4,1.8-47.5,5.9l-2,0.6v38l4.7-4.3
		c8.3-7.5,21.1-11.7,36.1-11.7c16.6,0,22,5.1,22,21.2v15.5c-4.5-0.8-9-1.2-13.3-1.2c-19.7,0-36.4,6.6-48.2,19
		c-11.2,11.8-16.9,27.7-16.1,44.8c0,30.1,18.6,51.9,44.2,51.9c15.5,0,27.5-6.8,34.3-19.3c0.5,7.9,1.1,15.3,1.1,15.3l0.2,2.6H656
		l-2.3-4.2C649.7,528.4,648,520,648.2,509.3z M613.3,454v27.2c0,21.1-7.9,31.7-23.6,31.7c-11.1,0-18.3-9.4-18.3-23.8
		c0-22,10.7-35.1,28.6-35.1H613.3z"/>
	<path class="st2" d="M743.5,411.2c-15.4,0-27.5,7.6-35.1,22c-1.2-8.5-3.8-15.8-3.9-16.2l-0.7-1.9h-38.1l2.3,4.2
		c3.7,6.6,5.7,17.4,5.4,29v138.2l2.4,0.4c7.9,1.2,19.3,2.2,30.4,2.7l2.9,0.1V472c0-15,4.4-32.8,25.1-32.8c16.9,0,25.4,11,25.4,32.8
		v114.5l2.4,0.4c7.9,1.2,19.3,2.2,30.4,2.7l2.9,0.1V472C795.4,435.6,774.5,411.2,743.5,411.2z"/>
	<polygon class="st2" points="796.4,397 802.6,397 802.6,412.8 807.1,412.8 807.1,397 813.3,397 813.3,393.4 796.4,393.4 	"/>
	<polygon class="st2" points="837.4,393.4 833.8,393.4 826.6,405.4 819.4,393.4 815.7,393.4 815.7,412.8 819.9,412.8 819.9,401.4 
		825.5,410.7 827.6,410.7 833.3,401.1 833.3,412.8 837.5,412.8 	"/>
	<path class="st2" d="M449.9,364.9c-18.8-35.3-79.1-37-90.4,4.8C390.6,356.3,417.3,361.4,449.9,364.9z"/>
	<path class="st2" d="M643.4,335.4c-15.8-36.8-75.8-43.4-90.5-2.6C585,322.1,611.2,329.3,643.4,335.4z"/>
	<path class="st2" d="M621.5,598.5c-3.8-1.9-8.4-0.9-11.1,2.3c-29.8,35.6-61.6,53.8-93.9,52.8c-52.3-0.9-90.9-49.3-91.2-49.8
		c-2.7-3.4-7.4-4.5-11.3-2.6c-3.9,1.9-5.9,6.4-4.8,10.6c12.7,47.7,59.1,83.2,108.3,83.2c0.5,0,1,0,1.5,0
		c49.8-0.7,96-37.8,107.4-86.3C627.3,604.6,625.3,600.4,621.5,598.5z"/>
</g>
</svg>
